<?xml version="1.0" encoding="UTF-8"?>
<!DOCTYPE svg PUBLIC "-//W3C//DTD SVG 1.1//EN" "http://www.w3.org/Graphics/SVG/1.1/DTD/svg11.dtd">
<!-- Creator: CorelDRAW -->
<svg xmlns="http://www.w3.org/2000/svg" xml:space="preserve" width="18.4006mm" height="18.4006mm" version="1.1" style="shape-rendering:geometricPrecision; text-rendering:geometricPrecision; image-rendering:optimizeQuality; fill-rule:evenodd; clip-rule:evenodd"
viewBox="0 0 252.62 252.62"
 xmlns:xlink="http://www.w3.org/1999/xlink"
 xmlns:xodm="http://www.corel.com/coreldraw/odm/2003">
 <defs>
  <style type="text/css">
   <![CDATA[
    .fil0 {fill:#31C030}
    .fil1 {fill:white;fill-rule:nonzero}
   ]]>
  </style>
 </defs>
 <g id="Camada_x0020_1">
  <metadata id="CorelCorpID_0Corel-Layer"/>
  <circle class="fil0" cx="126.31" cy="126.31" r="126.31"/>
  <g id="whats.svg">
   <g id="SVGRepo_bgCarrier">
   </g>
   <g id="SVGRepo_tracerCarrier">
   </g>
   <g id="SVGRepo_iconCarrier">
    <g>
     <path class="fil1" d="M185.63 66.66c-15.74,-15.75 -36.67,-24.43 -58.97,-24.44 -45.95,0 -83.35,37.38 -83.37,83.34 -0.01,14.69 3.83,29.03 11.13,41.66l-11.83 43.19 44.19 -11.59c12.18,6.64 25.89,10.14 39.84,10.14l0.03 -0c45.95,0 83.35,-37.39 83.37,-83.34 0.01,-22.27 -8.65,-43.21 -24.39,-58.96zm-58.97 128.22l-0.03 0c-12.43,-0 -24.63,-3.34 -35.27,-9.66l-2.53 -1.5 -26.22 6.88 7 -25.56 -1.65 -2.62c-6.94,-11.03 -10.6,-23.78 -10.59,-36.86 0.02,-38.19 31.1,-69.26 69.32,-69.26 18.51,0.01 35.91,7.22 48.99,20.31 13.08,13.09 20.28,30.5 20.28,49.01 -0.02,38.2 -31.1,69.27 -69.29,69.27l0 0zm38.01 -51.88c-2.08,-1.04 -12.32,-6.08 -14.23,-6.78 -1.91,-0.69 -3.3,-1.04 -4.69,1.04 -1.39,2.08 -5.38,6.78 -6.6,8.16 -1.22,1.39 -2.43,1.56 -4.51,0.52 -2.08,-1.04 -8.79,-3.24 -16.75,-10.34 -6.19,-5.52 -10.37,-12.34 -11.59,-14.43 -1.22,-2.09 -0.13,-3.21 0.91,-4.25 0.94,-0.93 2.08,-2.43 3.12,-3.65 1.04,-1.22 1.39,-2.09 2.08,-3.47 0.69,-1.39 0.35,-2.61 -0.17,-3.65 -0.52,-1.04 -4.69,-11.29 -6.42,-15.46 -1.69,-4.06 -3.41,-3.51 -4.69,-3.57 -1.21,-0.06 -2.6,-0.07 -3.99,-0.07 -1.39,0 -3.65,0.52 -5.55,2.61 -1.91,2.08 -7.29,7.12 -7.29,17.37 0,10.25 7.46,20.15 8.51,21.54 1.04,1.39 14.69,22.42 35.58,31.44 4.97,2.15 8.85,3.43 11.88,4.39 4.99,1.58 9.53,1.36 13.12,0.83 4,-0.6 12.32,-5.04 14.06,-9.9 1.74,-4.86 1.74,-9.03 1.22,-9.9 -0.52,-0.87 -1.91,-1.39 -3.99,-2.43l0 0z"/>
    </g>
   </g>
  </g>
 </g>
</svg>
